<?xml version="1.0" encoding="UTF-8" standalone="no"?>
<svg width="123px" height="110px" viewBox="0 0 123 110" version="1.1" xmlns="http://www.w3.org/2000/svg" xmlns:xlink="http://www.w3.org/1999/xlink">
    <!-- Generator: Sketch 3.7 (28169) - http://www.bohemiancoding.com/sketch -->
    <title>Shape</title>
    <desc>Created with Sketch.</desc>
    <defs></defs>
    <g id="Page-1" stroke="none" stroke-width="1" fill="none" fill-rule="evenodd">
        <g id="Choose-Attack" transform="translate(-574.000000, -200.000000)" fill="#616161">
            <path d="M689.726367,203.171328 C690.619806,202.177335 691.292521,200.946677 692.228002,200 C688.215991,212.953668 687.808202,219.589949 694.813708,225.583658 C695.528462,226.281826 696.369341,226.81433 697,227.618988 C696.358834,228.068662 695.591518,228.186995 694.866268,228.021332 C685.686623,227.677909 678.720741,234.700439 680.11929,244.587991 C679.69885,244.25665 679.34148,243.818819 678.931546,243.47565 C671.056321,239.75666 659.625146,244.088027 656.974016,253.427482 C656.648179,254.314987 656.007001,254.977654 655.418383,255.652149 C655.260725,255.024984 655.092546,254.38599 654.798244,253.829826 C653.463337,251.167315 651.697484,248.836158 649.868575,246.599648 C648.512641,245.155983 647.15672,243.653156 645.474961,242.682821 C643.625026,241.700657 641.438734,241.286485 639.473167,242.079327 C636.853647,243.220406 637.124655,245.263258 638.075204,246.96649 C638.968632,248.918991 639.0317,251.179158 639.536236,253.261819 C640.377115,255.403654 641.943255,257.060315 643.646041,258.32649 C644.728673,259.20215 645.85336,259.98315 647.020075,260.693147 C648.176297,261.426817 649.164327,262.444481 650.162877,263.426646 C651.140399,264.385152 651.82362,265.663142 652.349169,266.988475 C656.750673,276.664226 657.31491,283.813915 650.625357,291.211312 C649.73193,292.217136 648.701846,293.021807 647.703296,293.861967 C648.512641,295.210972 649.616301,296.477133 649.805506,298.157465 C650.752705,316.146253 630.209464,312.32821 641.522816,295.53047 C642.311146,294.276138 643.288669,293.18747 644.203124,292.063301 C643.309683,290.643307 642.794653,288.785468 643.299176,287.081478 C643.698601,287.720472 643.782684,288.525145 643.971889,289.258813 C644.234659,289.96881 644.718166,290.548645 645.254234,291.021978 C653.758563,284.750504 653.964793,270.390339 643.414793,266.680822 C641.23902,266.26665 639.021194,266.018155 636.929503,265.166152 C637.181765,266.065485 637.549643,266.941145 638.159287,267.603812 C638.516658,268.006142 638.327466,268.64515 638.096218,269.059308 C637.675778,270.017814 636.845407,270.573978 636.19372,271.295817 C635.594596,272.041316 635.069045,272.893319 634.785251,273.839982 C634.617072,274.455319 634.617072,275.117986 634.438386,275.733307 C634.175606,276.277642 633.692098,276.608983 633.250631,276.952152 C633.282166,278.076307 633.639548,279.164975 633.629029,280.289145 C632.914288,280.064308 632.315162,279.567304 631.758066,279.034813 C631.779136,279.685651 631.863133,280.348304 631.821135,281.010971 C631.148434,280.513981 630.580843,279.863143 629.992225,279.271479 C629.782005,279.034813 629.477183,279.224197 629.224909,279.212257 C628.688853,278.407598 628.236879,277.460935 628.436592,276.407769 C628.604769,275.816091 628.888565,275.153424 629.445648,274.9286 C629.939664,274.656434 630.559817,274.762927 630.969749,274.301435 C632.178519,273.082592 633.21911,271.686269 634.270209,270.301761 C634.638087,269.721925 635.195183,269.165763 635.132114,268.372934 C635.037511,266.479594 634.270209,264.728273 633.387276,263.154431 L633.050931,263.154431 C632.336177,264.728273 632.136465,266.728103 632.89326,268.325604 C633.135015,268.751605 632.693548,269.165763 632.483328,269.485261 C631.663477,270.420094 630.444198,270.526598 629.498198,271.224767 C628.730895,271.733599 627.984619,272.360764 627.511618,273.224596 C627.24885,273.650597 627.112205,274.171259 626.786356,274.54993 C626.365917,274.940429 625.777299,274.952259 625.314817,275.271755 C625.020502,276.253934 625.125612,277.330759 624.789269,278.301095 C624.694665,278.301095 624.515979,278.312399 624.421378,278.312399 C624.011444,277.744408 623.664581,277.117241 623.30721,276.490076 C623.139032,277.105399 623.065456,277.744408 622.834209,278.336072 C622.20355,277.86274 622.045892,276.904234 621.667494,276.194237 C621.562426,275.851068 621.215519,275.851068 620.963247,275.744577 C620.511272,274.561235 620.500765,272.869074 621.593918,272.123575 C622.256112,271.389905 623.244142,272.194578 624.011444,271.780404 C625.871901,270.892902 627.690304,269.851578 629.361553,268.561746 C629.90813,268.183075 629.824048,267.342915 629.950171,266.727578 C630.03431,265.354914 630.160391,263.934906 629.729444,262.621415 C629.13032,260.917411 628.257906,259.319909 627.984619,257.497571 C627.784905,256.13675 628.236879,254.858748 628.667826,253.628075 C628.730895,252.622253 628.72043,251.592744 628.762429,250.575078 C628.615284,249.072252 628.878102,247.510252 628.363016,246.078414 C627.879509,244.65842 627.396001,243.167423 626.555122,241.960422 C625.903435,241.049246 624.736706,241.262253 623.916842,241.747414 C620.469231,243.652584 617.463073,246.717409 615.739274,250.622408 C614.929916,252.279082 614.877368,254.278913 614.004955,255.900086 C612.024895,248.875155 602.867161,244.817078 597.229357,246.930344 C597.124289,247.403675 597.019137,247.877007 596.850958,248.326681 C594.095417,241.118744 586.316688,232.166644 577.027171,238.58784 C579.384846,230.171193 579.875695,223.700814 574.609633,215.465516 C574.115617,214.412348 574.231234,213.18169 574,212.045691 C574.041999,212.02197 574.126122,211.950967 574.168166,211.927405 C575.271826,213.217238 576.30191,214.625403 577.657832,215.595739 C583.621712,218.93324 597.574737,226.833998 607.792942,219.323232 C608.455135,219.157576 609.15937,219.323232 609.747988,219.678229 C608.337479,221.117802 609.343031,222.947143 609.916167,224.612724 C611.519081,228.050694 613.012069,230.960731 615.571098,233.026229 C621.461205,233.533739 627.839069,231.684644 633.284193,233.590801 C635.618446,229.184309 637.767741,225.226518 637.928041,220.163405 C637.539135,220.234408 637.234313,220.494731 636.94001,220.778727 C636.540585,221.192899 635.972995,221.086395 635.46846,221.086395 C635.552598,220.636737 635.636638,220.187063 635.710214,219.737404 C634.701156,219.062894 634.091525,217.796733 632.966837,217.311572 C632.756617,217.193287 632.809179,216.873729 632.756617,216.660734 C631.86319,216.400396 630.959231,216.246562 630.055283,216.12823 C630.254995,215.24074 630.927709,214.589902 631.652957,214.258561 C632.189027,214.282282 632.672535,214.637233 633.198083,214.720065 C634.102032,215.2999 634.995471,214.223061 635.899419,214.755567 C637.307888,215.323573 638.958125,215.359075 640.24047,214.42424 C640.356144,214.589896 641.453054,214.236169 641.568684,214.401791 C641.295396,214.744946 639.998716,215.560185 639.704413,215.879683 C639.714454,215.926965 639.725483,216.045339 639.725483,216.104519 C640.787102,216.258359 643.089585,215.972757 643.84638,216.978623 C643.17368,217.167957 641.459802,217.335178 640.787102,217.46534 C641.533378,219.098343 643.93879,221.925603 643.676008,223.807101 C643.528863,223.78338 641.596447,222.766675 641.459802,222.743018 C641.281116,224.163012 641.83739,226.552429 641.73228,227.984267 C641.574609,227.984267 640.513813,226.991171 640.356142,226.991171 C640.314143,228.139013 639.757018,229.109348 639.410153,230.150673 C639.189426,231.251169 639.11585,232.387183 638.968687,233.499509 C643.482059,233.164908 649.500536,234.291041 653.368789,233.002505 C655.271287,230.825183 656.595674,228.139013 657.993649,225.547504 C659.077752,222.800633 661.207157,220.512399 659.360077,218.19901 C659.906653,218.139788 660.463737,218.033354 660.999792,218.22273 C672.765006,218.206128 681.89411,214.407579 689.726422,203.170728 L689.726367,203.171328 Z M654.631226,294.759757 C638.165046,307.456815 658.429252,310.647572 656.218393,297.702172 C655.987145,296.561007 655.366995,295.59885 654.631226,294.759757 Z" id="Shape"></path>
        </g>
    </g>
</svg>