<?xml version="1.0" encoding="UTF-8" standalone="no"?>
<svg width="142px" height="131px" viewBox="0 0 142 131" version="1.1" xmlns="http://www.w3.org/2000/svg" xmlns:xlink="http://www.w3.org/1999/xlink">
    <!-- Generator: Sketch 3.7 (28169) - http://www.bohemiancoding.com/sketch -->
    <title>Shape</title>
    <desc>Created with Sketch.</desc>
    <defs></defs>
    <g id="Page-1" stroke="none" stroke-width="1" fill="none" fill-rule="evenodd">
        <g id="Choose-Attack-All-Highlighted" transform="translate(-569.000000, -193.000000)" fill="#D8D8D8">
            <path d="M702.602797,196.776764 C703.634248,195.593008 704.410878,194.127407 705.490864,193 C700.859112,208.426641 700.388331,216.329848 708.475988,223.46781 C709.301151,224.299266 710.271922,224.933429 711,225.891704 C710.259792,226.427225 709.373948,226.568149 708.536668,226.370859 C697.939028,225.961873 689.897116,234.325068 691.511701,246.100243 C691.026314,245.705647 690.613741,245.18423 690.140484,244.775547 C681.048761,240.346568 667.851795,245.504832 664.791141,256.627274 C664.414971,257.684211 663.674749,258.473388 662.995207,259.27665 C662.813195,258.529753 662.619037,257.76877 662.279273,257.106429 C660.738162,253.935621 658.699535,251.159424 656.588111,248.495945 C655.022724,246.776671 653.457351,244.98694 651.515809,243.83136 C649.380111,242.661691 646.856099,242.16845 644.586908,243.112653 C641.562746,244.471575 641.875617,246.904425 642.973,248.93282 C644.004436,251.258072 644.077248,253.949725 644.659719,256.429984 C645.63049,258.980716 647.438554,260.953647 649.404372,262.461547 C650.65424,263.504378 651.95266,264.434479 653.299599,265.28002 C654.634424,266.153755 655.775077,267.365701 656.927875,268.535369 C658.056396,269.676863 658.845155,271.198832 659.451886,272.777184 C664.533297,284.300123 665.184693,292.814754 657.461795,301.624381 C656.430358,302.822225 655.241155,303.780515 654.088358,304.78107 C655.022724,306.387612 656.296867,307.895495 656.515299,309.896617 C657.608813,331.319628 633.892227,326.772687 646.95317,306.768105 C647.863274,305.274309 648.991797,303.977805 650.047509,302.639022 C649.016057,300.947938 648.42147,298.735421 649.003927,296.706123 C649.465052,297.467107 649.562123,298.4254 649.780555,299.299132 C650.083915,300.144673 650.642111,300.835205 651.260986,301.398901 C661.078991,293.930146 661.317078,276.828495 649.137403,272.410797 C646.625536,271.917556 644.065118,271.621621 641.650321,270.606963 C641.94155,271.677987 642.366255,272.720819 643.070071,273.509995 C643.482646,273.989132 643.264229,274.750133 642.99726,275.243357 C642.511873,276.384851 641.553234,277.047192 640.80088,277.906837 C640.109208,278.794658 639.502475,279.809316 639.174843,280.936706 C638.980685,281.669516 638.980685,282.458692 638.774397,283.191484 C638.471024,283.839738 637.912828,284.234334 637.403168,284.643017 C637.439574,285.981784 637.852162,287.278288 637.840017,288.617073 C637.014869,288.349312 636.323195,287.757426 635.680043,287.123277 C635.704368,287.898367 635.801341,288.687526 635.752855,289.476702 C634.976241,288.884832 634.320973,288.109743 633.64143,287.405125 C633.398737,287.123277 633.046829,287.348816 632.755586,287.334597 C632.136725,286.376321 631.614933,285.248931 631.845496,283.994706 C632.039652,283.290072 632.367287,282.500896 633.010423,282.233151 C633.580751,281.909026 634.296699,282.035849 634.769954,281.486254 C636.165444,280.034723 637.366777,278.371829 638.580241,276.723006 C639.004946,276.032475 639.648097,275.370136 639.575286,274.425949 C639.466069,272.171153 638.580241,270.085489 637.56092,268.211186 L637.172619,268.211186 C636.347456,270.085489 636.116894,272.467104 636.990593,274.369583 C637.269692,274.876911 636.760031,275.370136 636.517338,275.750629 C635.570843,276.86393 634.163221,276.990767 633.07109,277.822222 C632.18526,278.428195 631.323706,279.175092 630.77764,280.203837 C630.474282,280.711165 630.316529,281.331227 629.940345,281.782189 C629.454961,282.247238 628.775418,282.261327 628.241497,282.641818 C627.901718,283.811503 628.023065,285.093904 627.634765,286.249486 C627.525548,286.249486 627.319261,286.262948 627.210046,286.262948 C626.736789,285.586523 626.336346,284.839624 625.92377,284.092727 C625.729614,284.82552 625.644673,285.586523 625.377704,286.291141 C624.649626,285.727445 624.467615,284.585951 624.030765,283.740409 C623.909468,283.331726 623.508973,283.331726 623.217732,283.204906 C622.69594,281.795653 622.68381,279.780442 623.945824,278.892621 C624.710308,278.018887 625.850961,278.97718 626.736789,278.483936 C628.884633,277.427001 630.983928,276.186879 632.913338,274.650806 C633.544345,274.199844 633.447274,273.19929 633.592881,272.466479 C633.690017,270.831761 633.835574,269.140661 633.338058,267.576412 C632.646385,265.547098 631.639209,263.644619 631.323706,261.474381 C631.093143,259.853766 631.614933,258.331782 632.112449,256.866162 C632.18526,255.668319 632.173179,254.442268 632.221666,253.23032 C632.051791,251.440591 632.355208,249.580391 631.760555,247.875202 C631.20236,246.184118 630.644164,244.408476 629.673393,242.971048 C628.921039,241.88592 627.574084,242.139593 626.627574,242.717375 C622.647405,244.986259 619.176881,248.636187 617.186804,253.286685 C616.252424,255.259634 616.191759,257.641251 615.184582,259.57192 C612.898659,251.205866 602.326315,246.373065 595.817631,248.889774 C595.696334,249.453467 595.574938,250.017163 595.38078,250.552684 C592.199587,241.968686 583.219266,231.307549 572.494783,238.95461 C575.216651,228.931148 575.783323,221.225515 569.703804,211.418023 C569.133476,210.163796 569.266953,208.698195 569,207.345323 C569.048486,207.317074 569.145604,207.232515 569.194143,207.204456 C570.468287,208.740529 571.65749,210.417526 573.222863,211.573108 C580.107993,215.547767 596.216363,224.956853 608.01299,216.012212 C608.777473,215.814931 609.590492,216.012212 610.270035,216.434982 C608.641642,218.149383 609.802523,220.327961 610.464192,222.311517 C612.314711,226.405827 614.038323,229.871416 616.99265,232.331237 C623.792611,232.935634 631.155673,230.733531 637.441914,233.00359 C640.136742,227.755859 642.618042,223.042489 642.803104,217.012782 C642.354123,217.09734 642.002215,217.407361 641.662451,217.745575 C641.201326,218.238817 640.546059,218.111979 639.963587,218.111979 C640.060723,217.576478 640.157745,217.040957 640.242686,216.505454 C639.077757,215.702174 638.373955,214.194291 637.075536,213.616509 C636.832842,213.475642 636.893524,213.095077 636.832842,212.841419 C635.801406,212.531381 634.757811,212.348178 633.714229,212.207256 C633.944791,211.150336 634.72142,210.375246 635.558699,209.98065 C636.177576,210.008899 636.735772,210.431614 637.342503,210.530259 C638.386085,211.22079 639.417536,209.938373 640.461118,210.572538 C642.087156,211.248983 643.992307,211.291262 645.472738,210.177959 C645.60628,210.37524 646.872632,209.953983 647.006123,210.151224 C646.69062,210.55989 645.193639,211.530766 644.853875,211.911258 C644.865467,211.967567 644.8782,212.10854 644.8782,212.179018 C646.103809,212.362227 648.76196,212.022101 649.635658,213.219996 C648.859045,213.445476 646.880422,213.644621 646.103809,213.799632 C646.965363,215.74439 649.742343,219.1114 649.438968,221.352093 C649.269094,221.323844 647.038174,220.11304 646.880422,220.084867 C646.674134,221.775951 647.316337,224.621529 647.19499,226.326718 C647.012964,226.326718 645.788304,225.144031 645.606278,225.144031 C645.557792,226.511007 644.914606,227.666587 644.51416,228.90671 C644.259337,230.217301 644.174396,231.57019 644.0045,232.89487 C649.215059,232.49639 656.163221,233.837513 660.629009,232.302984 C662.825388,229.70999 664.354355,226.511007 665.968277,223.424755 C667.219844,220.153481 669.678181,217.428402 667.54578,214.673366 C668.176787,214.602838 668.819924,214.476085 669.438784,214.701615 C683.021389,214.681843 693.560679,210.158117 702.602861,196.776048 L702.602797,196.776764 Z M662.086456,305.850255 C643.07672,320.971298 666.471169,324.771199 663.918795,309.354404 C663.651826,307.995381 662.93588,306.84954 662.086456,305.850255 Z" id="Shape"></path>
        </g>
    </g>
</svg>