<?xml version="1.0" encoding="UTF-8" standalone="no"?>
<svg width="64px" height="52px" viewBox="0 0 64 52" version="1.1" xmlns="http://www.w3.org/2000/svg" xmlns:xlink="http://www.w3.org/1999/xlink">
    <!-- Generator: Sketch 3.6.1 (26313) - http://www.bohemiancoding.com/sketch -->
    <title>Shape</title>
    <desc>Created with Sketch.</desc>
    <defs>
        <filter x="-50%" y="-50%" width="200%" height="200%" filterUnits="objectBoundingBox" id="filter-1">
            <feOffset dx="0" dy="2" in="SourceAlpha" result="shadowOffsetOuter1"></feOffset>
            <feGaussianBlur stdDeviation="2" in="shadowOffsetOuter1" result="shadowBlurOuter1"></feGaussianBlur>
            <feColorMatrix values="0 0 0 0 0   0 0 0 0 0   0 0 0 0 0  0 0 0 0.35 0" in="shadowBlurOuter1" type="matrix" result="shadowMatrixOuter1"></feColorMatrix>
            <feMerge>
                <feMergeNode in="shadowMatrixOuter1"></feMergeNode>
                <feMergeNode in="SourceGraphic"></feMergeNode>
            </feMerge>
        </filter>
    </defs>
    <g id="Page-1" stroke="none" stroke-width="1" fill="none" fill-rule="evenodd" filter="url(#filter-1)">
        <g id="ProfileScreen-DragonSlayer" transform="translate(-541.000000, -170.000000)" fill="#D8D8D8">
            <path d="M598.298388,172.297362 C598.709866,171.890728 599.019688,171.387277 599.450529,171 C597.602777,176.299228 597.414967,179.01407 600.64139,181.466042 C600.970573,181.751656 601.357845,181.969498 601.648298,182.298677 C601.353006,182.482634 600.999614,182.531043 600.665597,182.463272 C596.437863,182.322781 593.229689,185.195634 593.873798,189.240542 C593.680162,189.104993 593.515574,188.925881 593.326777,188.785493 C589.6998,187.264088 584.435112,189.036011 583.21412,192.856697 C583.064054,193.219767 582.768756,193.490858 582.497665,193.766788 C582.425055,193.510221 582.347599,193.248814 582.212057,193.021292 C581.597259,191.932084 580.783986,190.978428 579.941672,190.063493 C579.317189,189.472902 578.692713,188.858109 577.91817,188.461154 C577.066172,188.05936 576.059264,187.889925 575.154012,188.21427 C573.947578,188.681075 574.072392,189.516787 574.510173,190.213564 C574.921646,191.012315 574.950692,191.936928 575.183059,192.788926 C575.57033,193.665131 576.291624,194.342856 577.075851,194.860837 C577.574463,195.219061 578.092444,195.538561 578.62978,195.829015 C579.162284,196.129152 579.617327,196.54547 580.077214,196.947264 C580.527417,197.33938 580.842078,197.862194 581.084123,198.404376 C583.111258,202.362638 583.371121,205.287511 580.290212,208.313719 C579.878739,208.725192 579.404329,209.054376 578.944441,209.398078 C579.317189,209.949943 579.825486,210.467918 579.912625,211.155327 C580.348863,218.514376 570.887565,216.95245 576.097989,210.080647 C576.461058,209.567511 576.911262,209.122147 577.332419,208.662259 C576.92094,208.081353 576.68374,207.321328 576.916101,206.624241 C577.100058,206.885647 577.138783,207.214832 577.225922,207.514969 C577.346942,207.805422 577.569624,208.042628 577.816513,208.236264 C581.733226,205.670661 581.828207,199.796048 576.969349,198.278518 C575.967285,198.109084 574.945853,198.007427 573.982514,197.65888 C574.098695,198.026789 574.268123,198.385014 574.548898,198.656105 C574.713487,198.820694 574.626353,199.082107 574.519851,199.251535 C574.326215,199.643651 573.943783,199.871173 573.643646,200.166471 C573.367716,200.471447 573.125671,200.819994 572.994968,201.207265 C572.917512,201.458994 572.917512,201.730085 572.835217,201.981807 C572.714192,202.20449 572.49151,202.340038 572.288191,202.480426 C572.302714,202.940307 572.467308,203.385671 572.462464,203.845559 C572.133286,203.75358 571.857355,203.550261 571.600781,203.332423 C571.610485,203.598676 571.649171,203.869761 571.629828,204.140852 C571.320013,203.937538 571.058605,203.671286 570.787514,203.429241 C570.690696,203.332423 570.550309,203.409899 570.434123,203.405014 C570.18724,203.075836 569.97908,202.688564 570.071059,202.257724 C570.148514,202.015674 570.279218,201.744583 570.535786,201.652609 C570.763307,201.541269 571.048922,201.584834 571.237718,201.396042 C571.794423,200.897424 572.273673,200.326201 572.757762,199.759811 C572.927191,199.522606 573.183764,199.295085 573.154717,198.970746 C573.111147,198.196197 572.757762,197.479748 572.351123,196.835903 L572.196217,196.835903 C571.867034,197.479748 571.775055,198.29786 572.123601,198.951384 C572.234943,199.125657 572.031623,199.295085 571.934805,199.425788 C571.557218,199.80822 570.995673,199.85179 570.559988,200.137405 C570.206602,200.345563 569.862901,200.602131 569.645058,200.955517 C569.524038,201.12979 569.461106,201.342788 569.311034,201.497699 C569.117399,201.657448 568.846308,201.662288 568.63331,201.792991 C568.497761,202.194791 568.54617,202.635311 568.391265,203.032266 C568.347695,203.032266 568.265401,203.036891 568.221831,203.036891 C568.033034,202.804531 567.873284,202.547962 567.708695,202.291395 C567.63124,202.543118 567.597355,202.804531 567.490852,203.046575 C567.200399,202.852939 567.127789,202.460823 566.953516,202.17037 C566.905126,202.029982 566.745356,202.029982 566.629171,201.986418 C566.421011,201.502324 566.416172,200.810076 566.91963,200.505099 C567.224607,200.204961 567.679649,200.534146 568.033034,200.364711 C568.889877,200.001642 569.727352,199.575646 570.497055,199.047987 C570.748784,198.893076 570.710059,198.549374 570.768146,198.297646 C570.806897,197.736101 570.864964,197.155189 570.666489,196.617852 C570.390559,195.920759 569.988765,195.267235 569.862901,194.521734 C569.770922,193.965034 569.97908,193.442215 570.177555,192.938758 C570.206602,192.527285 570.201782,192.106122 570.221125,191.689804 C570.153357,191.075012 570.274399,190.436012 570.037174,189.85026 C569.814492,189.269353 569.59181,188.6594 569.204538,188.165627 C568.904401,187.792873 568.367057,187.880013 567.989465,188.078488 C566.401649,188.857875 565.017147,190.111667 564.223242,191.709167 C563.850489,192.386897 563.826287,193.20501 563.424493,193.868217 C562.512566,190.994382 558.294923,189.334259 555.698403,190.198777 C555.650013,190.392412 555.601585,190.586048 555.524129,190.770006 C554.25505,187.821304 550.672516,184.159082 546.39418,186.785935 C547.480019,183.342761 547.706082,180.695787 545.28077,177.326802 C545.053248,176.895961 545.106496,176.39251 545,175.927783 C545.019343,175.918079 545.058086,175.889032 545.07745,175.879393 C545.585746,176.407052 546.060157,176.983119 546.684634,177.380075 C549.43133,178.745416 555.857469,181.977545 560.563517,178.904958 C560.868494,178.83719 561.192833,178.904958 561.463924,179.050185 C560.814307,179.639101 561.277419,180.387468 561.54138,181.068842 C562.27961,182.475284 562.967214,183.665754 564.145788,184.51073 C566.858508,184.718348 569.795867,183.9619 572.303647,184.741691 C573.3787,182.939036 574.368569,181.319939 574.442396,179.248666 C574.263283,179.277712 574.122896,179.384208 573.987353,179.500388 C573.803396,179.669822 573.541989,179.626252 573.309623,179.626252 C573.348374,179.442302 573.387079,179.258344 573.420964,179.074393 C572.956237,178.798457 572.675468,178.280482 572.157488,178.082007 C572.06067,178.033617 572.084877,177.902889 572.06067,177.815755 C571.649197,177.709253 571.232874,177.646321 570.816556,177.597912 C570.908534,177.234848 571.218356,176.968596 571.552373,176.833048 C571.799263,176.842752 572.021945,176.987959 572.263989,177.021845 C572.680307,177.25905 573.091786,176.818525 573.508104,177.036368 C574.156782,177.268735 574.916807,177.283258 575.507398,176.900826 C575.560672,176.968594 576.06586,176.823887 576.119113,176.891642 C575.993249,177.032023 575.396056,177.36553 575.260514,177.496234 C575.265138,177.515577 575.270218,177.564002 575.270218,177.588212 C575.759152,177.651147 576.819572,177.53431 577.168118,177.9458 C576.858303,178.023255 576.068967,178.091664 575.759152,178.144912 C576.102853,178.812958 577.210678,179.969565 577.089653,180.739269 C577.021884,180.729565 576.1319,180.31364 576.068967,180.303962 C575.986673,180.884869 576.242867,181.862357 576.194458,182.448109 C576.121842,182.448109 575.633287,182.041843 575.560671,182.041843 C575.541328,182.511415 575.284741,182.90837 575.124991,183.334366 C575.023334,183.784569 574.989448,184.249302 574.921671,184.704345 C577.000328,184.567462 579.77217,185.028153 581.553714,184.501025 C582.429919,183.610302 583.039873,182.511415 583.683717,181.451252 C584.183007,180.327532 585.163716,179.391436 584.313033,178.445049 C584.564762,178.420822 584.821329,178.377281 585.068213,178.454753 C590.486744,178.447961 594.691201,176.89401 598.298413,172.297116 L598.298388,172.297362 Z M579.181672,211.111517 C579.07517,210.617744 578.789556,210.201426 578.450694,209.838356 C570.867108,215.332276 580.199895,216.712892 579.181672,211.111517 L579.181672,211.111517 Z" id="Shape"></path>
        </g>
    </g>
</svg>