<?xml version="1.0" encoding="UTF-8" standalone="no"?>
<svg width="55px" height="80px" viewBox="0 0 55 80" version="1.1" xmlns="http://www.w3.org/2000/svg" xmlns:xlink="http://www.w3.org/1999/xlink">
    <!-- Generator: Sketch 3.6.1 (26313) - http://www.bohemiancoding.com/sketch -->
    <title>arrows</title>
    <desc>Created with Sketch.</desc>
    <defs></defs>
    <g id="Page-1" stroke="none" stroke-width="1" fill="none" fill-rule="evenodd">
        <g id="FinishScreen" transform="translate(-375.000000, -264.000000)" fill="#D1B125">
            <g id="arrows" transform="translate(375.000000, 264.000000)">
                <path d="M34.0154019,50.0019623 C34.8535637,50.9791994 36.1806534,50.9791994 37.0188152,50.0019623 L41.768399,44.4642857 L41.768399,62.4617347 C41.768399,63.8461538 42.7462545,64.9048273 43.8638037,64.9048273 C44.9813528,64.9048273 45.9592083,63.7647174 45.9592083,62.4617347 L45.9592083,44.4642857 L50.7087921,50.0019623 C51.546954,50.9791994 52.8740436,50.9791994 53.7122055,50.0019623 C54.5503673,49.0247253 54.5503673,47.4774333 53.7122055,46.5001962 L45.3305869,36.7278257 C45.1210465,36.4835165 44.911506,36.3206436 44.6321187,36.1577708 C44.3527314,35.994898 44.0733441,35.994898 43.7939569,35.994898 C43.5145696,35.994898 43.2351823,36.0763344 42.955795,36.1577708 C42.6764077,36.3206436 42.4668673,36.4835165 42.2573268,36.7278257 L33.8757083,46.5001962 C33.17724,47.4774333 33.17724,49.0247253 34.0154019,50.0019623 L34.0154019,50.0019623 Z" id="Shape"></path>
                <path d="M0.698468211,35.0990973 C1.53663007,36.0763344 2.86371967,36.0763344 3.70188152,35.0990973 L8.45146536,29.5614207 L8.45146536,62.3802983 C8.45146536,63.7647174 9.42932085,64.8233909 10.54687,64.8233909 C11.6644191,64.8233909 12.6422746,63.683281 12.6422746,62.3802983 L12.6422746,29.5614207 L17.3918585,35.0990973 C18.2300203,36.0763344 19.5571099,36.0763344 20.3952718,35.0990973 C21.2334336,34.1218603 21.2334336,32.5745683 20.3952718,31.5973312 L12.0136532,21.8249608 C11.8041128,21.5806515 11.5945723,21.4177786 11.315185,21.2549058 C11.0357977,21.092033 10.7564105,21.092033 10.4770232,21.092033 C10.1976359,21.092033 10.0579422,21.1734694 9.77855496,21.3363422 C9.49916768,21.4992151 9.28962721,21.6620879 9.08008675,21.9063972 L0.698468211,31.6787677 C-0.139693642,32.5745683 -0.139693642,34.1218603 0.698468211,35.0990973 L0.698468211,35.0990973 Z" id="Shape"></path>
                <path d="M20.3952718,14.0885008 L25.1448556,8.55082418 L25.1448556,77.2831633 C25.1448556,78.6675824 26.1227111,79.7262559 27.2402602,79.7262559 C28.3578094,79.7262559 29.3356649,78.586146 29.3356649,77.2831633 L29.3356649,8.55082418 L34.0852487,14.0885008 C34.9234106,15.0657378 36.2505002,15.0657378 37.088662,14.0885008 C37.9268239,13.1112637 37.9268239,11.5639717 37.088662,10.5867347 L28.7070435,0.814364207 C28.497503,0.570054945 28.2879626,0.407182104 28.0085753,0.244309262 C27.729188,0.0814364207 27.4498007,0.0814364207 27.1704134,0.0814364207 C26.8910261,0.0814364207 26.6116389,0.162872841 26.3322516,0.244309262 C26.0528643,0.407182104 25.8433238,0.570054945 25.6337834,0.814364207 L17.2521648,10.5867347 C16.414003,11.5639717 16.414003,13.1112637 17.2521648,14.0885008 C18.0903267,15.0657378 19.5571099,14.9843014 20.3952718,14.0885008 L20.3952718,14.0885008 Z" id="Shape"></path>
            </g>
        </g>
    </g>
</svg>