<?xml version="1.0" encoding="UTF-8" standalone="no"?>
<svg width="340px" height="334px" viewBox="0 0 340 334" version="1.1" xmlns="http://www.w3.org/2000/svg" xmlns:xlink="http://www.w3.org/1999/xlink">
    <!-- Generator: Sketch 3.6.1 (26313) - http://www.bohemiancoding.com/sketch -->
    <title>Group Copy</title>
    <desc>Created with Sketch.</desc>
    <defs></defs>
    <g id="Page-1" stroke="none" stroke-width="1" fill="none" fill-rule="evenodd">
        <g id="CharacterCreator-Copy-4" transform="translate(-186.000000, -144.000000)" fill="#000000">
            <g id="Group-Copy" transform="translate(186.000000, 144.000000)">
                <path d="M225.857327,66.5538549 C225.857327,107.530202 192.638188,168.351147 151.668195,168.351147 C110.694037,168.351147 77.4790635,107.534367 77.4790635,66.5538549 C77.4790635,25.5733424 110.698202,0.684283447 151.668195,0.684283447 C192.642353,0.68844898 225.857327,25.5775079 225.857327,66.5538549 L225.857327,66.5538549 Z" id="Shape"></path>
                <path d="M279.792613,141.429308 L274.528196,141.429308 C241.571445,141.429308 214.85786,168.147036 214.85786,201.104732 C214.85786,234.066594 241.571445,260.784322 274.528196,260.784322 L279.792613,260.784322 C312.745199,260.784322 339.458784,234.066594 339.458784,201.104732 C339.458784,168.147036 312.745199,141.429308 279.792613,141.429308 L279.792613,141.429308 Z M279.263672,248.808415 L275.057137,248.808415 C248.714227,248.808415 227.360851,227.451728 227.360851,201.104732 C227.360851,174.761902 248.714227,153.405215 275.057137,153.405215 L279.263672,153.405215 C305.602418,153.405215 326.955793,174.761902 326.955793,201.104732 C326.955793,227.451728 305.602418,248.808415 279.263672,248.808415 L279.263672,248.808415 Z" id="Shape"></path>
                <path d="M302.357971,309.875127 C302.045604,307.796526 301.429201,305.83456 300.54208,304.010057 C297.376766,293.879481 294.26143,284.598673 291.154425,276.001014 L280.038341,276.001014 C279.396949,276.030172 278.772216,276.130145 278.122493,276.130145 L259.938597,276.130145 C234.516127,272.781057 201.938381,259.172261 195.865976,212.622431 L195.865976,206.549084 L195.865976,195.943637 L195.865976,178.248454 C183.013135,176.603068 168.619285,176.157356 152.034705,176.157356 C70.5986703,176.157356 33.1605013,191.274075 1.12419068,308.696281 C1.10753113,308.742102 1.09920135,308.783757 1.08670669,308.825413 C0.820153927,310.150052 0.674382883,311.520512 0.674382883,312.924297 C0.674382883,324.233719 9.84129911,333.402057 21.1489672,333.402057 L282.191588,333.402057 C293.499256,333.402057 302.666172,324.233719 302.666172,312.924297 C302.666172,311.887079 302.512072,310.87902 302.357971,309.875127 L302.357971,309.875127 Z" id="Shape"></path>
                <path d="M300.446288,194.506528 L283.753421,194.506528 L283.753421,177.815238 C283.753421,174.166231 280.800516,171.212868 277.15624,171.212868 C273.511964,171.212868 270.559059,174.166231 270.559059,177.815238 L270.559059,194.506528 L253.866192,194.506528 C250.221916,194.506528 247.269011,197.464057 247.269011,201.104732 C247.269011,204.749574 250.221916,207.707102 253.866192,207.707102 L270.559059,207.707102 L270.559059,224.402558 C270.559059,228.043234 273.511964,231.000762 277.15624,231.000762 C280.800516,231.000762 283.753421,228.043234 283.753421,224.402558 L283.753421,207.707102 L300.446288,207.707102 C304.090564,207.707102 307.043469,204.749574 307.043469,201.104732 C307.043469,197.464057 304.090564,194.506528 300.446288,194.506528 L300.446288,194.506528 Z" id="Shape"></path>
            </g>
        </g>
    </g>
</svg>