<?xml version="1.0" encoding="UTF-8" standalone="no"?>
<svg width="55px" height="55px" viewBox="0 0 55 55" version="1.1" xmlns="http://www.w3.org/2000/svg" xmlns:xlink="http://www.w3.org/1999/xlink">
    <!-- Generator: Sketch 3.6.1 (26313) - http://www.bohemiancoding.com/sketch -->
    <title>Shape</title>
    <desc>Created with Sketch.</desc>
    <defs></defs>
    <g id="Page-1" stroke="none" stroke-width="1" fill="none" fill-rule="evenodd">
        <g id="FinishScreen" transform="translate(-628.000000, -279.000000)" fill="#D1B125">
            <path d="M676.044329,288.250326 L677.693611,288.250326 C679.701434,288.250326 681.279009,286.672751 681.279009,284.664928 C681.279009,282.657106 679.701434,281.079531 677.693611,281.079531 L666.937419,281.079531 C664.929596,281.079531 663.352021,282.657106 663.352021,284.664928 L663.352021,294.704042 C663.352021,296.711864 664.929596,298.289439 666.937419,298.289439 C668.945241,298.289439 670.522816,296.711864 670.522816,294.704042 L670.522816,292.767927 C673.89309,296.496741 675.829205,301.372881 675.829205,306.464146 C675.829205,317.650587 666.722295,326.829205 655.464146,326.829205 C653.456323,326.829205 651.448501,326.542373 649.584094,325.968709 C647.647979,325.395046 645.783572,324.53455 644.134289,323.387223 C638.541069,319.586701 635.170795,313.276402 635.170795,306.535854 C635.170795,295.349413 644.277705,286.170795 655.535854,286.170795 C657.543677,286.170795 659.121252,284.59322 659.121252,282.585398 C659.121252,280.577575 657.543677,279 655.535854,279 C640.333768,279 628,291.333768 628,306.535854 C628,315.714472 632.517601,324.247718 640.118644,329.338983 C642.413299,330.84485 644.851369,332.063885 647.504563,332.852673 C650.08605,333.64146 652.739244,334 655.464146,334 C670.666232,334 683,321.666232 683,306.464146 C683,299.723598 680.490222,293.269883 676.044329,288.250326 L676.044329,288.250326 Z" id="Shape"></path>
        </g>
    </g>
</svg>