<?xml version="1.0" encoding="UTF-8" standalone="no"?>
<svg width="45px" height="34px" viewBox="0 0 45 34" version="1.1" xmlns="http://www.w3.org/2000/svg" xmlns:xlink="http://www.w3.org/1999/xlink">
    <!-- Generator: Sketch 3.6.1 (26313) - http://www.bohemiancoding.com/sketch -->
    <title>Shape Copy</title>
    <desc>Created with Sketch.</desc>
    <defs></defs>
    <g id="Page-1" stroke="none" stroke-width="1" fill="none" fill-rule="evenodd">
        <g id="CharacterCreator-Copy-4" transform="translate(-255.000000, -327.000000)" fill="#D1B125">
            <g id="Group-3" transform="translate(230.000000, 307.000000)">
                <path d="M70,27.50015 L60.62515,20 L60.62515,23.74985 L56.8753,23.74985 C52.4878,23.74985 49.07545,26.6375 47.12515,29.0747 L51.3628,34.3622 C52.4878,33.0122 54.58795,31.24955 56.8753,31.24955 L60.62515,31.24955 L60.62515,34.9994 L70,27.50015 L70,27.50015 Z M42.775,44.4125 L38.64985,39.16235 C37.29985,40.73735 35.0872,42.5 32.4997,42.5 L26.8747,42.5 C25,42.5 25,42.5 25,44.37515 L25,48.125 C25,50.00015 25,50.00015 26.87515,50.00015 L32.50015,50.00015 C36.925,50.00015 40.44985,47.1125 42.775,44.4125 L42.775,44.4125 Z M70,46.24985 L60.62515,38.75015 L60.62515,42.5 L56.8753,42.5 C49.37515,42.5 43.75015,23.74985 32.50015,23.74985 L26.87515,23.74985 C25,23.74985 25,23.74985 25,25.625 L25,29.37485 C25,31.25 25,31.25 26.87515,31.25 L32.50015,31.25 C40.93765,31.25 45.6253,50.00015 56.8753,50.00015 L60.62515,50.00015 L60.62515,53.75 L70,46.24985 L70,46.24985 Z" id="Shape-Copy"></path>
            </g>
        </g>
    </g>
</svg>