<?xml version="1.0" encoding="UTF-8" standalone="no"?>
<svg width="31px" height="31px" viewBox="0 0 31 31" version="1.1" xmlns="http://www.w3.org/2000/svg" xmlns:xlink="http://www.w3.org/1999/xlink">
    <!-- Generator: Sketch 3.6.1 (26313) - http://www.bohemiancoding.com/sketch -->
    <title>Shape</title>
    <desc>Created with Sketch.</desc>
    <defs></defs>
    <g id="Page-1" stroke="none" stroke-width="1" fill="none" fill-rule="evenodd">
        <g id="ReivewScreen" transform="translate(-532.000000, -401.000000)" fill="#000000">
            <g id="Activate" transform="translate(509.000000, 379.000000)">
                <path d="M27.6584658,27.0562898 L27.4921059,27.2984004 L27.4921059,24.0083845 C27.4921059,23.3542166 26.9646097,22.8238968 26.313877,22.8238968 L24.6644305,22.8238968 C24.0136978,22.8238968 23.4862385,23.3542166 23.4862385,24.0083845 L23.4862385,33.7214439 C23.4862385,34.375649 24.0136978,34.9059688 24.6644305,34.9059688 L34.3256117,34.9059688 C34.9763074,34.9059688 35.5038036,34.375649 35.5038036,33.7214439 L35.5038036,32.063124 C35.5038036,31.4089189 34.9763074,30.8785991 34.3256117,30.8785991 L30.7698252,30.8785991 C31.6483328,29.8568714 32.8326219,28.8941261 33.7807109,28.4059206 C34.2519655,28.169023 34.723257,27.9321255 35.1650605,27.7840366 C35.606901,27.6063821 36.0781925,27.4879333 36.5494471,27.3990874 C37.1385431,27.2806387 37.9043826,27.2213957 38.5229297,27.2213957 C44.001537,27.2213957 48.5965003,31.7818035 48.5965003,37.3786473 C48.5965003,37.4674932 48.5375981,38.3558776 48.4786589,38.8296726 C48.2135621,40.5472356 47.5066617,42.4128502 46.0044707,44.1896189 C44.914632,45.4629897 42.7349917,46.9436179 40.7320581,47.3286043 C39.3771226,47.5951047 38.6996733,48.6611809 38.6996733,49.6976169 C38.6996733,50.9413848 39.6422194,52.0666667 41.0266061,52.0666667 C41.5567629,52.0666667 42.499346,51.7705261 42.9706006,51.6224745 C45.1208267,50.9413848 47.300467,49.7864628 49.391754,47.5062589 C51.2179811,45.4925926 52.1899783,43.4196833 52.7496232,41.376377 C53.0147201,40.4287868 53.1619756,39.3331078 53.2798169,38.3854805 L53.2798169,36.43102 C53.2798169,35.3945839 52.7496232,33.2328288 52.4550752,32.4628932 C49.8335945,25.2965753 43.6775379,22.4833333 38.5229297,22.4833333 C37.5509325,22.4833333 36.5494471,22.5425763 35.6363521,22.749871 C34.9294517,22.8979226 34.2225144,23.1052173 33.515614,23.3421148 C31.6324432,24.0147146 29.5824691,25.2526364 27.7866539,27.145024 L27.6584658,27.0562898 Z" id="Shape"></path>
            </g>
        </g>
    </g>
</svg>