<?xml version="1.0" encoding="UTF-8" standalone="no"?>
<svg width="65px" height="65px" viewBox="0 0 65 65" version="1.1" xmlns="http://www.w3.org/2000/svg" xmlns:xlink="http://www.w3.org/1999/xlink">
    <!-- Generator: Sketch 3.6.1 (26313) - http://www.bohemiancoding.com/sketch -->
    <title>Group 2</title>
    <desc>Created with Sketch.</desc>
    <defs></defs>
    <g id="Page-1" stroke="none" stroke-width="1" fill="none" fill-rule="evenodd">
        <g id="FinishScreen" transform="translate(-114.000000, -269.000000)" stroke="#323131" stroke-width="2" fill="#D1B125">
            <g id="Group-2" transform="translate(116.000000, 272.000000)">
                <path d="M0,0.178851972 C0.179650418,0.118170053 0.175658186,0.0590850263 0.178851972,0 L0.354510158,0.175658186 C5.16115689,0.0495036707 10.3718175,2.93987928 11.7156026,3.74151937 L43.3268901,35.2202648 L44.4694668,34.0776882 C45.6687331,32.8784218 47.6137483,32.8784218 48.8138131,34.0776882 C50.0138779,35.2785514 50.0138779,37.2227681 48.8138131,38.4228329 L46.0815299,41.1551162 L55.6293507,50.7045339 C57.0050737,50.4027212 58.4989667,50.7787895 59.5688848,51.8487075 C61.2376376,53.5182587 61.2376376,56.2241932 59.5688848,57.8937445 L57.7132956,59.7477368 C56.0445428,61.417288 53.3378099,61.417288 51.6690571,59.7485352 C50.599139,58.6786172 50.2230708,57.1847241 50.5240851,55.8090012 L40.9762642,46.2611803 L38.2455779,48.9926651 C37.0447146,50.1935283 35.098901,50.1935283 33.8996346,48.994262 C32.6995698,47.7933987 32.6995698,45.849182 33.8996346,44.6483188 L35.2202648,43.328487 L3.94672007,12.0541438 L3.67444988,11.7818736 C2.93908084,10.371019 0.0495036707,5.16035845 0.17485974,0.353711712 L0,0.178851972 Z" id="Shape"></path>
                <path d="M60.8204494,0.178851972 C60.640799,0.118170053 60.6447912,0.0590850263 60.6415974,0 L60.4659392,0.175658186 C55.6592925,0.0495036707 50.4486319,2.93987928 49.1048468,3.74151937 L17.4935592,35.2202648 L16.3509826,34.0776882 C15.1517162,32.8784218 13.2067011,32.8784218 12.0066363,34.0776882 C10.8065715,35.2785514 10.8065715,37.2227681 12.0066363,38.4228329 L14.7389195,41.1551162 L5.19109863,50.7045339 C3.81537565,50.4027212 2.32148262,50.7787895 1.25156458,51.8487075 C-0.417188193,53.5182587 -0.417188193,56.2241932 1.25156458,57.8937445 L3.10715378,59.7477368 C4.77590655,61.417288 7.48263952,61.417288 9.15139229,59.7485352 C10.2213103,58.6786172 10.5973785,57.1847241 10.2963643,55.8090012 L19.8441852,46.2611803 L22.5748715,48.9926651 C23.7757348,50.1935283 25.7215484,50.1935283 26.9208147,48.994262 C28.1208795,47.7933987 28.1208795,45.849182 26.9208147,44.6483188 L25.6001846,43.328487 L56.8737293,12.0541438 L57.1459995,11.7818736 C57.8813685,10.371019 60.7709457,5.16035845 60.6455896,0.353711712 L60.8204494,0.178851972 Z" id="Shape-Copy"></path>
            </g>
        </g>
    </g>
</svg>