<?xml version="1.0" encoding="UTF-8" standalone="no"?>
<svg width="35px" height="53px" viewBox="0 0 35 53" version="1.1" xmlns="http://www.w3.org/2000/svg" xmlns:xlink="http://www.w3.org/1999/xlink">
    <!-- Generator: Sketch 3.6.1 (26313) - http://www.bohemiancoding.com/sketch -->
    <title>arrows</title>
    <desc>Created with Sketch.</desc>
    <defs></defs>
    <g id="Page-1" stroke="none" stroke-width="1" fill="none" fill-rule="evenodd">
        <g id="WelcomeBackScreen-Copy-2" transform="translate(-521.000000, -188.000000)" fill="#000000">
            <g id="Activate" transform="translate(501.000000, 173.000000)">
                <g id="arrows" transform="translate(19.988658, 15.216667)">
                    <path d="M21.9113364,32.5012755 C22.4512461,33.1364796 23.3061032,33.1364796 23.8460129,32.5012755 L26.9055013,28.9017857 L26.9055013,40.6001276 C26.9055013,41.5 27.535396,42.1881378 28.2552756,42.1881378 C28.9751553,42.1881378 29.60505,41.4470663 29.60505,40.6001276 L29.60505,28.9017857 L32.6645384,32.5012755 C33.2044481,33.1364796 34.0593052,33.1364796 34.5992149,32.5012755 C35.1391246,31.8660714 35.1391246,30.8603316 34.5992149,30.2251276 L29.2001177,23.8730867 C29.0651402,23.7142857 28.9301628,23.6084184 28.7501929,23.502551 C28.570223,23.3966837 28.3902531,23.3966837 28.2102832,23.3966837 C28.0303133,23.3966837 27.8503434,23.4496173 27.6703734,23.502551 C27.4904035,23.6084184 27.3554261,23.7142857 27.2204487,23.8730867 L21.8213514,30.2251276 C21.3714266,30.8603316 21.3714266,31.8660714 21.9113364,32.5012755 L21.9113364,32.5012755 Z" id="Shape"></path>
                    <path d="M0.449924771,22.8144133 C0.989834497,23.4496173 1.84469156,23.4496173 2.38460129,22.8144133 L5.44408973,19.2149235 L5.44408973,40.5471939 C5.44408973,41.4470663 6.07398441,42.1352041 6.79386405,42.1352041 C7.51374368,42.1352041 8.14363836,41.3941327 8.14363836,40.5471939 L8.14363836,19.2149235 L11.2031268,22.8144133 C11.7430365,23.4496173 12.5978936,23.4496173 13.1378033,22.8144133 C13.6777131,22.1792092 13.6777131,21.1734694 13.1378033,20.5382653 L7.73870607,14.1862245 C7.60372864,14.0274235 7.46875121,13.9215561 7.2887813,13.8156888 C7.10881139,13.7098214 6.92884148,13.7098214 6.74887157,13.7098214 C6.56890166,13.7098214 6.47891671,13.7627551 6.2989468,13.8686224 C6.11897689,13.9744898 5.98399946,14.0803571 5.84902203,14.2391582 L0.449924771,20.591199 C-0.0899849543,21.1734694 -0.0899849543,22.1792092 0.449924771,22.8144133 L0.449924771,22.8144133 Z" id="Shape"></path>
                    <path d="M13.1378033,9.15752551 L16.1972918,5.55803571 L16.1972918,50.2340561 C16.1972918,51.1339286 16.8271865,51.8220663 17.5470661,51.8220663 C18.2669457,51.8220663 18.8968404,51.0809949 18.8968404,50.2340561 L18.8968404,5.55803571 L21.9563288,9.15752551 C22.4962386,9.79272959 23.3510956,9.79272959 23.8910054,9.15752551 C24.4309151,8.52232143 24.4309151,7.51658163 23.8910054,6.88137755 L18.4919081,0.529336735 C18.3569307,0.370535714 18.2219532,0.264668367 18.0419833,0.15880102 C17.8620134,0.0529336735 17.6820435,0.0529336735 17.5020736,0.0529336735 C17.3221037,0.0529336735 17.1421338,0.105867347 16.9621639,0.15880102 C16.782194,0.264668367 16.6472165,0.370535714 16.5122391,0.529336735 L11.1131419,6.88137755 C10.5732321,7.51658163 10.5732321,8.52232143 11.1131419,9.15752551 C11.6530516,9.79272959 12.5978936,9.73979592 13.1378033,9.15752551 L13.1378033,9.15752551 Z" id="Shape"></path>
                </g>
            </g>
        </g>
    </g>
</svg>